<?xml version="1.0" encoding="utf-8"?>
<!-- Generator: Adobe Illustrator 18.0.0, SVG Export Plug-In . SVG Version: 6.00 Build 0)  -->
<!DOCTYPE svg PUBLIC "-//W3C//DTD SVG 1.1//EN" "http://www.w3.org/Graphics/SVG/1.1/DTD/svg11.dtd">
<svg version="1.1" id="svg2" xmlns:svg="http://www.w3.org/2000/svg"
	 xmlns="http://www.w3.org/2000/svg" xmlns:xlink="http://www.w3.org/1999/xlink" x="0px" y="0px" viewBox="0 0 758 758"
	 enable-background="new 0 0 758 758" xml:space="preserve">
<g id="layer3">
	<path id="path8018" fill="#393633" stroke="#393633" stroke-width="0.7087" d="M60.6,474.5c182,167.6,442.8,178.9,637.3-1.9
		l-43.2-43.3c-4.9,6.1-10,10.4-15.2,14.1L406.3,192.5l23.1-37.1l-43.1-35.1l-49.9,23.4l17.4,50.2L119.1,445.2
		c-5.3-4.6-10.5-9.4-15.4-14.8L60.6,474.5z"/>
</g>
<g id="layer7">
	<path id="path9961" fill="#FFFFFF" stroke="#393633" stroke-width="0.7087" d="M230.7,361.8c18.7,14.7,40.6,27.4,67.9,36.8
		l-33.8,125.8c-48.4-13.9-89.3-36.6-126.4-63.8L230.7,361.8z"/>
	<path id="path9963" fill="#FFFFFF" stroke="#393633" stroke-width="0.7087" d="M288.8,531.1c54.3,12.7,113.9,15.6,179.7,0
		L434,403.2c-37.4,10.3-74.7,10.3-111.5,2.3L288.8,531.1z"/>
	<path id="path9965" fill="#FFFFFF" stroke="#393633" stroke-width="0.7087" d="M492.1,525c36.5-11.5,71.7-24.1,128.3-66.3
		l-96.1-103.1c-19.6,17.4-41.9,30.6-66.9,39.9L492.1,525z"/>
	<path id="path9967" fill="#FFFFFF" stroke="#393633" stroke-width="0.7087" d="M415.7,239.4l91.8,98.1c-16.9,14.3-35.9,25-56.3,34
		L415.7,239.4z"/>
	<path id="path9969" fill="#FFFFFF" stroke="#393633" stroke-width="0.7087" d="M247.5,343.7l92.4-98.7l-35.1,130
		C281.1,366.6,262.9,355.3,247.5,343.7z"/>
	<path id="path9971" fill="#FFFFFF" stroke="#393633" stroke-width="0.7087" d="M328.9,381.7c29.4,6,60.9,8,98.6-2.2l-23-85.6
		l-42.3-35.7L328.9,381.7z"/>
	<path id="path9973" fill="#FFFFFF" stroke="#393633" stroke-width="0.8591" stroke-linejoin="round" d="M404.4,170.1
		c0,12.2-10.3,22.2-23,22.2c-12.7,0-23-9.9-23-22.2c0-12.2,10.3-22.2,23-22.2C394.1,148,404.4,157.9,404.4,170.1z"/>
</g>
<g id="layer4">
	<path id="rect13853" fill="#393633" stroke="#393633" stroke-width="1" stroke-linejoin="round" d="M321.3,602.9h117.2v41.3H321.3
		V602.9z"/>
	<path id="rect13855" fill="#393633" stroke="#393633" stroke-linejoin="round" d="M358.4,212.9h49.2v401.4h-49.2V212.9z"/>
	<path id="path13857" fill="none" stroke="#393633" stroke-width="45.1194" stroke-linejoin="round" d="M428.8,170
		c0,26.1-21.1,47.2-47.1,47.2s-47.1-21.2-47.1-47.2s21.1-47.2,47.1-47.2S428.8,144,428.8,170z"/>
</g>
<g id="layer5">
	<path id="rect15802" fill="#393633" stroke="#393633" stroke-width="1" stroke-linejoin="round" d="M220.5,239.2l33-13.1
		l46.8,118.4l-33,13.1L220.5,239.2z"/>
</g>
<g id="layer6">
	<path id="rect16773" fill="#393633" stroke="#393633" stroke-linejoin="round" d="M439.1,255.1h155.1c5.1,0,9.1,4.1,9.1,9.1v35.4
		c0,5.1-4.1,9.1-9.1,9.1H439.1c-5.1,0-9.1-4.1-9.1-9.1v-35.4C429.9,259.2,434,255.1,439.1,255.1z"/>
</g>
</svg>
