<?xml version="1.0" encoding="utf-8"?>
<!-- Generator: Adobe Illustrator 16.0.0, SVG Export Plug-In . SVG Version: 6.00 Build 0)  -->
<!DOCTYPE svg PUBLIC "-//W3C//DTD SVG 1.1//EN" "http://www.w3.org/Graphics/SVG/1.1/DTD/svg11.dtd">
<svg version="1.1" id="Layer_1" xmlns="http://www.w3.org/2000/svg" xmlns:xlink="http://www.w3.org/1999/xlink" x="0px" y="0px"
	 width="512px" height="512px" viewBox="0 0 512 512" enable-background="new 0 0 512 512" xml:space="preserve">
<path d="M429,42.295H83c-5.523,0-10,4.477-10,10v415c0,0.833,0.113,1.637,0.305,2.41L256.5,326.295l182.339,142.74
	c0.1-0.566,0.161-1.146,0.161-1.74v-415C439,46.772,434.523,42.295,429,42.295z M108.5,344.795c0,4.143-3.358,7.5-7.5,7.5
	s-7.5-3.357-7.5-7.5v-242c0-4.142,3.358-7.5,7.5-7.5s7.5,3.358,7.5,7.5V344.795z M341.397,147.122
	c-12.481,10.265-24.852,20.657-37.307,30.953c-0.341,0.3-0.694,0.609-0.934,1.002c3.52,15.313,7.462,30.543,11.138,45.826
	c2.793,7.663-3.739,16.701-11.943,16.099c-2.834-0.035-5.302-1.589-7.563-3.13c-12.209-7.712-24.426-15.42-36.638-23.125
	c-1.041-0.636-2.021-1.434-3.193-1.816c-13.847,8.341-27.486,17.056-41.298,25.465c-3.799,2.268-8.843,2.237-12.571-0.158
	c-3.929-2.341-6.351-7.169-5.421-11.723c3.979-16.338,8.457-32.591,12.254-48.961c-11.218-9.655-22.612-19.118-33.883-28.712
	c-2.553-2.067-5.321-4.233-6.428-7.458c-2.707-6.474,1.577-14.915,8.672-15.925c16.886-1.427,33.888-2.028,50.735-3.575
	c5.827-13.924,11.429-27.953,17.187-41.912c1.071-2.784,2.31-5.684,4.755-7.55c5.413-4.631,14.907-3.081,17.98,3.532
	c6.224,15.417,12.336,30.883,18.521,46.32c0.104,0.524,0.598,0.697,1.08,0.697c15.479,1.061,30.943,2.322,46.418,3.424
	c4.443,0.092,8.848,2.538,10.854,6.571C346.294,137.493,345.463,143.779,341.397,147.122z M418.5,344.795c0,4.143-3.357,7.5-7.5,7.5
	s-7.5-3.357-7.5-7.5v-242c0-4.142,3.357-7.5,7.5-7.5s7.5,3.358,7.5,7.5V344.795z"/>
</svg>
