<?xml version="1.0" encoding="iso-8859-1"?>
<svg version="1.1" id="Capa_1" xmlns="http://www.w3.org/2000/svg" xmlns:xlink="http://www.w3.org/1999/xlink" x="0px" y="0px"
	 viewBox="0 0 490 490" style="enable-background:new 0 0 490 490;" xml:space="preserve">
<g>
	<path fill="#ffffff" d="M386.6,0l-25.7,25.7l20.4,20.4c3.7,3.7,3.7,9.8-0.1,13.5l-0.4,0.4c-3.7,3.6-9.7,3.6-13.3-0.1l-20.6-20.6l-26.4,26.4
		l43.8,43.8c3.7,3.7,3.7,9.8-0.1,13.5l-0.4,0.4c-3.7,3.6-9.7,3.6-13.3-0.1l-43.9-43.9L280,105.8l20.4,20.4c3.7,3.7,3.7,9.8-0.1,13.5
		l-0.4,0.4c-3.7,3.6-9.7,3.6-13.3-0.1L266,119.4l-26.4,26.4l43.8,43.8c3.7,3.7,3.7,9.8-0.1,13.5l-0.4,0.4c-3.7,3.6-9.7,3.6-13.3-0.1
		l-43.9-43.9l-26.4,26.4l21,21c3.5,3.5,3.7,9.2,0.5,12.9l0,0c-3.6,4.2-10,4.4-13.9,0.5l-20-20l-26.4,26.4l43.8,43.8
		c3.7,3.7,3.7,9.8-0.1,13.5l-0.4,0.4c-3.7,3.6-9.7,3.6-13.3-0.1l-43.9-43.9l-26.4,26.4l20.4,20.4c3.7,3.7,3.7,9.8-0.1,13.5l-0.4,0.4
		c-3.7,3.6-9.7,3.6-13.3-0.1l-20.6-20.6l-26.4,26.4l43.8,43.8c3.7,3.7,3.7,9.8-0.1,13.5l-0.4,0.4c-3.7,3.6-9.7,3.6-13.3-0.1
		l-43.9-43.9l-26.4,26.4l20.4,20.4c3.7,3.7,3.7,9.8-0.1,13.5l-0.4,0.4c-3.7,3.6-9.7,3.6-13.3-0.1l-20.6-20.6L0,386.6L103.4,490
		L490,103.4L386.6,0z"/>
</g>
</svg>
